<?xml version="1.0" standalone="no"?>
<!DOCTYPE svg PUBLIC "-//W3C//DTD SVG 20010904//EN"
 "http://www.w3.org/TR/2001/REC-SVG-20010904/DTD/svg10.dtd">
<svg version="1.0" xmlns="http://www.w3.org/2000/svg"
 width="1358.000000pt" height="1358.000000pt" viewBox="0 0 1358.000000 1358.000000"
 preserveAspectRatio="xMidYMid meet">
<metadata>
Created by potrace 1.14, written by Peter Selinger 2001-2017
</metadata>
<g transform="translate(0.000000,1358.000000) scale(0.100000,-0.100000)"
fill="#000000" stroke="none">
<path d="M5850 13064 c-450 -41 -566 -82 -861 -305 -254 -192 -339 -374 -380
-819 -6 -69 -13 -144 -16 -167 -3 -26 5 -80 20 -145 14 -57 33 -141 42 -188
10 -48 34 -122 57 -170 22 -47 52 -123 69 -169 16 -45 44 -105 64 -132 19 -27
35 -53 35 -58 0 -5 3 -11 8 -13 4 -1 27 -28 51 -58 25 -30 75 -86 112 -125 37
-38 78 -83 91 -100 12 -16 27 -35 33 -41 5 -6 47 -51 92 -100 44 -50 97 -99
117 -109 20 -11 36 -22 36 -25 0 -3 -15 -13 -32 -21 -55 -25 -203 -103 -208
-109 -5 -5 -37 -25 -115 -70 -16 -9 -52 -31 -80 -47 -27 -16 -120 -65 -205
-108 -276 -139 -483 -279 -678 -458 -99 -91 -310 -304 -338 -342 -16 -22 -31
-42 -34 -45 -3 -3 -35 -50 -72 -105 -36 -55 -84 -121 -106 -145 -58 -67 -127
-163 -141 -199 -8 -17 -17 -31 -21 -31 -13 0 -33 -97 -28 -136 4 -34 3 -36
-62 -70 -90 -47 -236 -195 -307 -309 -35 -56 -45 -85 -102 -275 -81 -271 -95
-374 -80 -588 13 -189 26 -240 102 -392 34 -69 63 -128 65 -132 7 -15 -192 -8
-218 7 -35 20 -77 18 -165 -6 -97 -26 -195 -19 -234 17 -52 48 -76 51 -166 19
-96 -33 -143 -31 -240 9 -80 34 -119 33 -174 -3 -43 -29 -46 -29 -80 -15 -19
8 -38 19 -41 25 -4 5 -26 10 -51 11 -33 2 -56 -5 -93 -27 -48 -28 -104 -36
-261 -35 -169 1 -212 6 -247 33 -45 35 -73 34 -151 -3 -87 -41 -118 -39 -171
12 -72 68 -169 55 -169 -22 0 -35 70 -112 128 -140 48 -23 177 -28 232 -8 29
11 38 9 66 -7 33 -21 161 -36 297 -36 235 0 266 2 303 18 20 9 37 20 37 25 0
4 17 1 38 -8 58 -25 158 -24 208 3 l42 22 58 -24 c70 -29 196 -34 284 -11 30
8 57 11 60 7 11 -17 68 -39 133 -51 68 -12 165 -8 239 11 29 8 50 5 97 -11 80
-27 192 -27 268 0 32 11 59 20 60 20 1 0 15 -19 30 -42 16 -24 36 -51 45 -62
9 -10 36 -50 60 -89 97 -157 136 -207 294 -372 25 -27 32 -44 38 -95 4 -34 11
-70 15 -79 5 -9 23 -46 42 -84 18 -37 35 -67 38 -67 4 0 12 -15 19 -32 26 -62
55 -118 69 -129 7 -6 13 -17 13 -24 0 -8 6 -15 13 -18 27 -9 -3 -17 -42 -11
-31 5 -45 13 -51 29 -11 30 -48 55 -80 55 -14 0 -41 -14 -60 -31 -50 -44 -93
-59 -169 -59 -102 0 -164 21 -207 68 -20 22 -47 43 -60 46 -29 8 -84 -18 -84
-40 0 -8 -9 -18 -20 -22 -27 -10 -186 4 -230 20 -46 17 -120 60 -120 69 0 16
-88 21 -124 8 -62 -22 -60 -80 5 -119 21 -14 39 -27 39 -31 0 -14 135 -72 197
-85 77 -16 280 -19 285 -4 2 5 30 -4 63 -19 83 -40 167 -54 272 -48 63 3 100
11 131 26 l43 22 54 -26 c67 -33 175 -49 289 -42 77 5 93 3 116 -13 15 -10 75
-35 134 -55 59 -20 136 -49 172 -65 35 -17 67 -30 69 -30 3 0 26 -13 52 -29
27 -16 95 -48 153 -71 58 -24 121 -50 140 -60 44 -22 349 -126 411 -139 25 -6
100 -15 165 -21 65 -6 175 -25 244 -42 218 -53 418 -56 1320 -22 365 13 502
23 625 44 33 5 107 17 165 25 58 9 137 22 175 30 63 12 448 130 550 168 107
40 250 102 253 109 2 4 10 8 18 8 14 0 54 19 64 31 3 3 24 15 47 27 46 23 77
47 136 104 l38 37 75 -15 c139 -26 307 -13 394 30 22 12 27 11 45 -7 34 -33
116 -64 204 -76 160 -21 213 -14 303 41 l47 29 42 -21 c33 -17 66 -23 168 -27
114 -5 134 -3 201 17 41 13 91 34 111 46 l37 23 215 -11 c233 -13 247 -11 247
38 0 23 -27 45 -60 50 -8 1 -42 12 -75 24 -33 12 -73 26 -90 30 -211 59 -233
61 -308 26 -127 -60 -165 -69 -258 -63 -75 5 -119 17 -139 37 -15 16 -66 30
-107 30 -42 0 -50 -4 -96 -51 l-51 -51 -75 6 c-168 15 -171 15 -217 64 -35 37
-51 45 -88 49 -38 5 -53 1 -84 -20 -20 -14 -50 -31 -67 -38 -32 -13 -230 -17
-242 -5 -4 3 10 41 31 84 62 123 126 292 126 331 0 29 10 46 46 86 26 28 65
72 88 99 46 54 109 127 144 165 13 14 31 38 40 53 9 16 20 28 24 28 4 0 8 4 8
9 0 23 72 126 89 127 11 1 26 4 35 7 9 4 33 -3 53 -15 44 -26 163 -60 328 -93
174 -35 207 -33 304 16 76 38 87 41 208 50 94 7 142 6 183 -2 96 -22 226 -17
298 10 l64 24 114 -18 c113 -18 179 -17 377 1 66 7 70 6 94 -21 49 -52 103
-68 266 -75 92 -4 152 -11 159 -18 8 -8 47 -12 108 -12 74 0 113 6 174 25 86
27 192 33 259 14 20 -5 77 -35 124 -65 99 -62 130 -73 228 -81 68 -5 71 -5 82
19 15 32 5 49 -76 126 -75 72 -206 154 -282 176 -82 25 -226 21 -340 -9 -114
-30 -195 -31 -309 -5 -47 11 -115 20 -151 20 -68 0 -129 15 -129 31 0 5 -15
18 -32 30 -31 19 -47 20 -283 18 -137 -1 -285 1 -327 5 -65 7 -86 5 -143 -14
-56 -19 -80 -21 -158 -16 -262 16 -402 18 -456 6 -33 -7 -84 -31 -124 -56 -45
-29 -79 -44 -100 -44 -40 0 -172 28 -321 69 -61 16 -124 33 -139 36 -23 5 -27
10 -21 23 4 9 18 53 32 97 23 71 26 96 25 220 -2 232 -46 492 -114 662 -58
149 -267 551 -291 561 -5 2 -8 10 -8 18 0 8 -3 14 -8 14 -4 0 -16 17 -27 38
-72 136 -298 377 -421 448 -55 32 -64 41 -64 68 0 26 -34 94 -62 127 -13 15
-34 40 -48 56 -40 49 -151 172 -200 223 -25 26 -85 91 -135 145 -49 54 -133
142 -185 195 -52 53 -153 159 -225 235 -156 165 -125 135 -276 276 -181 170
-192 179 -249 219 -19 13 -37 27 -40 30 -3 4 -68 48 -145 100 -77 51 -141 94
-143 95 -2 2 10 11 26 21 159 101 320 255 391 372 84 140 163 375 197 586 15
92 16 128 7 245 -6 75 -8 182 -6 238 4 82 1 120 -17 195 -28 121 -125 418
-159 487 -40 83 -144 185 -227 222 -38 17 -114 52 -169 78 -55 26 -118 52
-140 59 -67 19 -254 52 -301 52 -24 0 -92 7 -151 15 -181 25 -596 41 -733 29z
m585 -209 c33 -2 153 -14 267 -25 188 -18 213 -23 275 -52 l68 -32 -60 -6
c-33 -4 -73 -13 -90 -21 -45 -21 -94 -69 -117 -113 -19 -36 -19 -46 -9 -110 7
-39 19 -81 26 -93 8 -12 15 -43 15 -67 0 -56 40 -106 109 -139 55 -26 200 -30
241 -8 53 30 81 74 120 188 23 67 23 76 11 134 -13 64 -24 89 -54 123 -23 27
-6 32 28 10 15 -10 41 -25 58 -34 24 -13 36 -30 48 -66 9 -27 24 -64 33 -81
21 -43 120 -343 135 -412 8 -36 8 -65 1 -90 -20 -77 -40 -261 -39 -366 0 -60
-4 -130 -10 -156 -5 -25 -13 -83 -16 -130 -7 -90 -23 -169 -35 -169 -4 0 -10
-15 -14 -32 -6 -32 -44 -118 -57 -128 -3 -3 -17 -23 -31 -45 -14 -22 -37 -51
-51 -65 -15 -14 -27 -31 -27 -37 0 -7 -5 -13 -12 -13 -16 0 -68 -51 -68 -67 0
-7 -4 -13 -10 -13 -5 0 -26 -16 -46 -35 -20 -20 -50 -43 -67 -51 -31 -17 -44
-26 -78 -56 -23 -21 -33 -22 -51 -5 -7 7 -38 25 -67 40 -67 33 -135 37 -151 8
-28 -53 2 -120 85 -192 21 -19 49 -43 61 -54 12 -11 39 -29 61 -40 21 -11 40
-23 43 -26 3 -4 50 -36 105 -73 55 -36 105 -69 110 -73 39 -32 117 -83 125
-83 6 0 10 -4 10 -9 0 -6 18 -20 40 -32 22 -13 40 -26 40 -31 0 -4 4 -8 8 -8
19 0 342 -319 342 -337 0 -8 4 -12 9 -9 4 3 28 -18 52 -46 67 -80 211 -240
236 -265 13 -12 23 -24 23 -27 0 -3 20 -26 44 -50 24 -25 61 -67 82 -93 22
-26 55 -66 76 -88 86 -95 109 -122 135 -160 25 -35 74 -93 126 -147 9 -10 17
-21 17 -24 0 -3 16 -22 35 -42 19 -20 37 -44 40 -52 3 -9 17 -23 32 -32 16 -9
45 -33 67 -52 21 -20 45 -36 52 -36 8 0 14 -3 14 -8 0 -4 23 -18 50 -31 28
-13 50 -29 50 -35 0 -6 14 -20 30 -31 16 -11 30 -23 30 -27 0 -5 6 -8 13 -8 7
0 17 -9 22 -19 15 -29 86 -133 107 -155 10 -11 18 -23 18 -27 0 -4 17 -34 38
-66 60 -91 158 -292 172 -353 7 -30 28 -88 47 -129 35 -73 35 -76 45 -270 11
-219 5 -326 -18 -317 -8 3 -14 -1 -14 -9 0 -8 5 -15 10 -15 14 0 0 -230 -14
-248 -6 -7 -18 -21 -26 -30 -9 -9 -31 -41 -50 -69 -19 -29 -40 -53 -46 -53 -7
0 -14 -8 -18 -17 -8 -26 -26 -51 -68 -97 -21 -23 -38 -47 -38 -53 0 -7 -4 -13
-10 -13 -5 0 -10 -7 -10 -15 0 -8 -4 -15 -8 -15 -10 0 -72 -87 -72 -100 0 -9
-14 -14 -33 -11 -4 0 -6 -5 -5 -11 2 -7 -4 -12 -14 -10 -12 2 -15 -3 -10 -20
5 -21 4 -22 -11 -9 -10 8 -17 9 -17 3 0 -6 5 -14 10 -17 6 -4 8 -11 4 -16 -12
-19 -46 30 -40 57 4 14 2 24 -4 24 -5 0 -11 -10 -11 -22 l-2 -23 -4 23 c-2 12
-9 22 -14 22 -5 0 -9 7 -9 16 0 9 -7 14 -17 12 -22 -4 -29 -28 -9 -28 12 0 16
-11 17 -47 1 -27 5 -59 9 -73 l8 -25 7 23 c4 12 14 22 21 22 16 0 19 -16 4
-25 -21 -13 -38 -74 -43 -154 -3 -52 -2 -79 4 -70 7 12 9 12 9 0 0 -8 10 -25
22 -38 24 -25 9 -32 -16 -7 -28 27 -17 1 11 -28 l27 -28 -48 -46 c-47 -44 -74
-53 -68 -20 5 28 -19 18 -59 -26 -29 -32 -39 -38 -39 -25 0 11 14 32 30 47 17
15 30 31 30 34 0 3 -16 6 -35 6 l-35 0 0 -47 c0 -69 8 -77 53 -54 21 11 32 21
25 24 -7 2 -9 8 -5 13 4 5 12 2 17 -5 9 -16 2 -41 -12 -41 -5 0 -24 -11 -42
-25 -18 -14 -43 -25 -55 -25 -12 0 -20 -4 -17 -9 3 -5 -9 -16 -27 -24 -43 -21
-67 -52 -74 -93 -5 -30 -9 -34 -37 -34 -24 0 -27 -3 -16 -10 12 -8 11 -10 -5
-10 -12 0 -26 5 -32 11 -6 6 -19 9 -29 6 -16 -4 -15 -5 4 -6 30 -1 29 -31 -1
-31 -13 0 -29 -6 -35 -12 -9 -9 -15 -10 -20 -2 -4 6 -17 14 -29 18 -13 4 -23
14 -23 22 0 11 -15 14 -60 14 l-60 0 1 -32 c0 -18 3 -27 6 -20 5 14 53 17 53
3 0 -5 14 -9 30 -9 17 1 33 -2 37 -6 16 -15 -23 -23 -94 -19 -54 3 -73 1 -68
-8 4 -6 19 -9 36 -5 17 3 29 1 32 -7 3 -9 9 -9 26 1 24 14 31 15 31 4 0 -17
-66 -39 -102 -34 -28 3 -38 0 -38 -10 0 -26 -111 -67 -235 -87 -38 -7 -110
-18 -160 -27 -127 -21 -332 -37 -378 -30 -35 6 -74 -5 -87 -25 -12 -17 -288
-29 -632 -27 -203 2 -368 5 -368 8 0 3 -88 5 -196 5 -154 0 -197 3 -204 14 -6
10 -21 12 -61 8 -45 -6 -50 -5 -34 7 17 12 9 15 -66 22 -46 4 -129 7 -184 6
-110 -3 -178 5 -169 19 3 5 27 9 55 9 27 0 49 5 49 10 0 6 33 10 80 10 47 0
80 -4 80 -10 0 -6 -30 -10 -67 -11 -38 0 -90 -5 -118 -9 -48 -9 -48 -9 14 -5
35 3 90 5 122 5 56 0 59 1 59 25 0 25 -1 25 -85 25 -50 0 -85 -4 -85 -10 0 -6
-32 -10 -75 -10 -60 0 -75 -3 -75 -15 0 -17 -2 -18 -24 -9 -22 8 -20 21 4 29
17 5 30 45 14 45 -15 0 -44 -22 -39 -31 13 -19 -35 -8 -49 12 -16 23 -32 25
-181 19 -56 -2 -92 2 -120 13 -22 8 -58 19 -80 22 -37 7 -38 8 -16 16 13 5 39
7 57 3 20 -4 34 -2 34 4 0 5 -16 13 -36 16 -19 4 -43 10 -52 13 -13 4 -14 3
-3 -5 20 -15 -62 -27 -88 -13 -11 6 -29 11 -40 11 -12 0 -29 9 -38 20 -11 13
-30 20 -51 20 -30 0 -32 2 -18 15 21 21 63 19 78 -5 17 -27 78 -27 98 0 8 11
22 20 32 20 10 0 18 5 18 10 0 13 -286 12 -315 -1 -15 -7 -12 -7 12 -3 28 5
53 -9 40 -23 -8 -7 -208 44 -221 57 -5 5 -18 10 -28 10 -10 0 -30 7 -44 17
-19 12 -22 18 -12 25 8 6 1 8 -21 6 -21 -2 -36 2 -38 10 -3 9 11 12 51 12 31
0 56 5 56 10 0 15 47 12 53 -2 3 -7 6 2 6 20 l1 32 -80 0 c-74 0 -80 -2 -80
-20 0 -25 -27 -37 -43 -21 -9 9 -8 14 3 21 10 6 13 23 11 54 -2 43 11 62 22
34 3 -8 6 -5 6 5 1 10 -6 25 -14 33 -8 9 -15 24 -15 35 0 25 -17 25 -25 -1 -3
-11 -12 -20 -20 -20 -8 0 -17 9 -20 20 -4 14 -15 20 -36 20 -24 0 -29 4 -29
25 0 14 -6 25 -12 25 -8 0 -9 3 -3 8 6 4 12 19 13 35 3 25 1 27 -32 27 -30 0
-36 -4 -37 -22 -2 -23 -2 -23 -6 1 -4 21 -9 23 -39 18 -68 -11 -124 29 -124
90 0 15 -9 47 -19 70 -11 23 -17 44 -14 47 3 3 -17 28 -46 55 -28 27 -51 56
-51 65 0 9 -6 16 -12 16 -7 1 -26 21 -41 45 -15 24 -37 47 -48 50 -14 5 -18
13 -15 28 3 12 3 16 0 9 -7 -16 -74 52 -74 75 0 15 -67 124 -83 134 -5 4 -7
12 -3 18 4 6 2 9 -6 6 -14 -5 -48 46 -48 71 0 8 -4 14 -9 14 -5 0 -13 10 -17
23 -4 12 -17 45 -29 72 -13 28 -29 73 -36 100 -7 28 -21 68 -30 90 -21 49 -36
157 -45 330 -5 103 -3 145 10 200 9 39 21 93 27 120 27 133 60 236 100 308 24
44 34 56 41 45 7 -9 8 -6 5 10 -4 17 12 51 58 125 36 56 76 125 90 153 14 28
45 69 70 92 25 22 45 46 45 51 0 6 4 11 8 11 9 0 92 135 92 150 0 6 5 10 10
10 6 0 10 5 10 11 0 6 26 50 58 97 55 85 66 100 87 125 6 7 42 52 80 102 39
49 77 97 86 106 9 9 21 24 25 32 33 58 294 320 557 559 23 21 67 51 97 66 30
15 57 30 58 35 2 4 7 7 11 7 11 0 156 85 284 166 160 102 241 151 347 207 52
27 99 54 105 58 5 5 15 9 22 9 16 0 114 62 132 84 7 9 20 16 27 16 7 0 11 6 8
14 -6 16 35 33 45 19 11 -17 42 -11 56 11 11 17 11 30 2 66 -7 25 -18 52 -26
59 -23 25 -73 18 -126 -18 l-49 -33 -30 18 c-17 10 -51 32 -75 49 -57 39 -441
424 -441 442 0 7 -7 13 -15 13 -8 0 -15 4 -15 8 0 5 -25 46 -55 91 -30 45 -55
87 -55 93 0 5 -12 33 -26 62 -50 99 -98 273 -116 416 -28 230 4 546 72 698 18
39 36 72 41 72 4 0 10 8 13 18 11 34 132 149 207 198 24 16 49 34 54 41 17 19
156 88 225 111 103 34 204 50 396 62 285 17 431 18 609 5z m682 -309 c38 -42
43 -89 16 -152 l-16 -39 -10 37 c-10 42 -57 88 -89 88 -27 0 -78 -31 -78 -47
0 -7 -5 -13 -10 -13 -13 0 -3 105 12 137 12 24 43 33 103 28 31 -3 48 -12 72
-39z m-3067 -6596 c0 -5 -4 -10 -10 -10 -5 0 -10 5 -10 10 0 6 5 10 10 10 6 0
10 -4 10 -10z m-20 -100 c0 -5 -7 -10 -15 -10 -8 0 -15 5 -15 10 0 6 7 10 15
10 8 0 15 -4 15 -10z m17 -42 c-3 -8 -6 -5 -6 6 -1 11 2 17 5 13 3 -3 4 -12 1
-19z m133 -52 c0 -1 -9 -2 -20 -2 -15 0 -20 7 -20 25 l0 24 20 -23 c11 -13 20
-24 20 -24z m-146 8 c3 -8 2 -12 -4 -9 -6 3 -10 10 -10 16 0 14 7 11 14 -7z
m123 -70 c-3 -3 -12 -4 -19 -1 -8 3 -5 6 6 6 11 1 17 -2 13 -5z m1583 -444 c0
-12 -24 -12 -60 0 -21 7 -19 8 18 9 23 1 42 -3 42 -9z m1630 -10 c0 -5 -7 -10
-15 -10 -8 0 -15 5 -15 10 0 6 7 10 15 10 8 0 15 -4 15 -10z"/>
<path d="M5445 12691 c-40 -10 -143 -65 -176 -94 -40 -35 -66 -78 -84 -139
-33 -116 21 -228 126 -258 63 -18 75 5 48 92 -10 34 -19 87 -19 117 0 45 4 58
27 78 33 32 106 63 144 63 54 0 82 -28 99 -97 l8 -33 -52 6 c-28 3 -63 1 -78
-5 -35 -13 -68 -66 -68 -107 0 -17 -7 -37 -15 -44 -16 -13 -20 -57 -7 -77 4
-6 20 -17 36 -23 54 -20 197 30 264 94 49 46 62 77 62 152 0 63 -26 164 -42
164 -5 0 -8 6 -8 13 0 18 -51 63 -92 80 -46 19 -133 28 -173 18z"/>
<path d="M6199 12426 c-2 -2 -51 -10 -109 -16 -109 -13 -240 -53 -277 -85 -12
-10 -50 -45 -85 -79 -35 -34 -82 -70 -103 -81 -22 -11 -60 -31 -85 -46 -25
-14 -79 -35 -120 -48 -117 -36 -205 -98 -245 -174 -11 -20 -24 -37 -29 -37
-13 0 -1 -153 13 -158 6 -2 11 -9 11 -16 0 -22 74 -85 120 -102 25 -9 108 -29
185 -46 77 -16 158 -34 180 -39 22 -6 92 -14 155 -18 63 -4 135 -15 160 -23
54 -19 154 -37 235 -43 33 -2 95 -7 138 -11 47 -4 100 -2 130 4 29 6 86 16
127 22 104 16 271 50 295 60 11 5 31 12 45 15 66 18 215 101 259 144 50 49 61
78 61 158 0 47 -37 134 -68 163 -61 56 -151 109 -229 134 -39 13 -69 34 -122
87 -39 38 -73 69 -77 69 -6 0 -136 90 -144 100 -12 15 -95 40 -176 54 -81 15
-235 22 -245 12z m251 -227 c30 -13 58 -28 62 -35 4 -7 27 -22 50 -34 24 -12
52 -30 63 -39 11 -9 32 -23 46 -30 15 -7 33 -24 40 -37 7 -13 18 -24 26 -24 7
0 13 -4 13 -9 0 -6 14 -18 30 -28 31 -18 39 -38 18 -47 -9 -3 -8 -8 5 -16 24
-15 23 -60 -2 -60 -11 0 -22 -6 -24 -12 -3 -7 -6 -3 -6 10 -1 13 5 22 14 22
17 0 21 16 5 22 -6 2 -11 17 -13 35 -2 28 -5 31 -27 27 -14 -3 -31 0 -39 5
-13 8 -13 12 0 27 11 13 11 18 2 21 -7 3 -13 11 -13 19 0 19 -19 18 -26 -1 -4
-8 -15 -15 -25 -15 -21 0 -26 -16 -7 -22 9 -3 8 -10 -5 -22 -13 -13 -25 -16
-45 -10 -23 6 -24 8 -7 12 24 5 35 20 35 47 -1 18 -3 17 -21 -7 -19 -26 -23
-27 -80 -21 -41 4 -59 2 -59 -6 0 -6 18 -12 43 -13 l42 -1 -45 -6 c-25 -4
-116 -5 -202 -2 l-158 4 0 -57 0 -56 -86 0 -86 0 4 60 4 60 -73 0 c-48 0 -73
-4 -73 -12 0 -6 -9 -3 -20 7 -15 14 -20 15 -21 4 0 -10 -2 -11 -6 -1 -2 6 -8
10 -13 7 -5 -3 -15 2 -24 10 -9 9 -17 11 -21 5 -3 -5 -14 -10 -23 -10 -12 0
-9 7 13 25 17 13 36 24 43 25 6 0 12 4 12 8 0 5 17 18 38 30 21 12 59 43 83
69 55 58 86 73 136 67 21 -2 31 -1 23 3 -24 12 165 32 260 28 59 -3 102 -11
140 -26z m236 -216 c-11 -11 -17 4 -9 23 7 18 8 18 11 1 2 -10 1 -21 -2 -24z
m-948 -34 c-16 -11 -49 -11 -65 -1 -6 4 9 7 34 8 27 1 39 -2 31 -7z m-78 -25
c0 -9 -8 -23 -17 -30 -22 -16 -63 -18 -63 -3 0 6 -9 8 -22 4 -19 -6 -21 -5
-11 6 8 7 30 12 53 11 30 -2 40 1 40 13 0 8 5 15 10 15 6 0 10 -7 10 -16z
m1252 -27 c20 -10 49 -31 65 -47 15 -17 36 -30 45 -30 23 0 24 -36 2 -44 -9
-4 -19 -4 -22 -1 -3 3 0 5 6 5 7 0 12 5 12 10 0 6 -13 10 -30 10 -26 0 -30 4
-30 28 0 21 -8 32 -35 46 -26 14 -38 16 -48 8 -8 -7 -16 -9 -19 -6 -8 7 2 45
11 41 3 -2 23 -11 43 -20z m-1378 -18 c21 -10 23 -14 11 -25 -7 -8 -21 -14
-29 -14 -10 0 -16 -9 -16 -22 0 -19 -2 -20 -10 -8 -9 13 -11 13 -20 0 -6 -9
-10 -10 -10 -3 0 6 7 19 16 28 9 9 13 19 9 23 -4 4 -10 1 -12 -5 -5 -15 -33
-18 -33 -4 0 10 42 23 62 18 7 -2 10 -2 6 0 -9 5 -11 23 -3 23 2 0 15 -5 29
-11z m116 -19 c0 -11 -7 -20 -15 -20 -18 0 -19 6 -2 25 16 19 17 18 17 -5z
m1268 4 c16 -5 22 -14 22 -35 0 -18 -5 -29 -14 -29 -8 0 -17 -6 -20 -12 -5
-10 -7 -10 -12 0 -7 14 -44 16 -44 2 0 -18 48 -30 77 -19 19 7 29 6 37 -2 8
-9 7 -10 -6 -6 -10 4 -18 2 -18 -3 0 -4 -16 -14 -35 -20 -19 -6 -43 -19 -52
-28 -18 -18 -18 -20 3 33 5 11 -1 15 -20 15 -14 0 -26 -4 -26 -10 0 -23 -28
-8 -33 18 -5 28 2 47 10 25 3 -7 16 -13 29 -13 21 0 24 4 24 39 0 33 4 40 23
44 12 2 24 5 27 6 3 0 15 -2 28 -5z m-1487 -51 c-6 -10 -11 -12 -11 -5 0 6 -5
12 -11 12 -6 0 -8 -9 -4 -20 5 -16 2 -20 -14 -20 -12 0 -21 5 -21 10 0 6 5 10
10 10 6 0 9 4 8 9 -2 5 6 18 17 29 16 15 22 17 28 6 4 -8 3 -22 -2 -31z m229
-13 c0 -18 7 -20 80 -20 44 0 80 -4 80 -9 0 -5 -36 -7 -80 -5 -69 4 -80 2 -80
-11 0 -13 -6 -15 -32 -10 -42 9 -48 13 -48 31 0 24 23 43 53 44 20 0 27 -5 27
-20z m-167 -27 c-7 -2 -21 -2 -30 0 -10 3 -4 5 12 5 17 0 24 -2 18 -5z m477
-3 c0 -5 -16 -10 -35 -10 -19 0 -35 5 -35 10 0 6 16 10 35 10 19 0 35 -4 35
-10z m330 -20 l0 -30 75 0 75 0 0 -30 0 -30 -81 0 -81 0 6 -30 c5 -29 4 -30
-27 -29 -30 1 -31 1 -7 9 18 6 4 8 -47 9 -68 1 -73 2 -74 24 l-2 22 -4 -22
c-6 -31 -23 -29 -23 2 0 18 -5 25 -19 25 -33 0 -71 -19 -71 -35 0 -9 -9 -15
-25 -15 -21 0 -25 5 -25 30 0 28 -2 29 -24 18 -21 -9 -31 -7 -58 10 -29 19
-31 22 -10 22 15 0 22 6 22 20 0 17 7 20 40 20 22 0 40 -4 40 -10 0 -6 32 -10
75 -10 l76 0 6 30 6 30 78 0 79 0 0 -30z m310 20 c0 -5 -13 -10 -30 -10 -16 0
-30 -4 -30 -10 0 -5 14 -10 30 -10 23 0 30 -5 30 -19 0 -24 31 -52 37 -33 3 6
16 12 29 12 13 0 24 5 24 10 0 6 16 10 35 10 46 0 45 -16 -2 -25 -27 -5 -33
-9 -22 -16 9 -5 1 -6 -22 -3 -22 4 -39 2 -43 -5 -10 -16 -26 -14 -26 4 0 16
-25 19 -111 15 -40 -1 -47 1 -52 20 -10 38 2 50 49 50 24 0 44 5 44 10 0 6 14
10 30 10 17 0 30 -4 30 -10z m90 0 c0 -5 11 -10 25 -10 14 0 25 -4 25 -10 0
-6 -30 -10 -70 -10 -38 0 -70 2 -70 4 0 24 17 36 51 36 21 0 39 -4 39 -10z
m-882 -42 c2 -4 10 -8 18 -8 8 0 14 -4 14 -10 0 -5 -7 -10 -15 -10 -8 0 -15 5
-15 10 0 6 -15 10 -34 10 -45 0 -72 10 -55 20 15 10 83 0 87 -12z m1012 -6 c0
-19 -38 -42 -68 -41 -12 0 -9 3 7 10 14 5 32 19 40 29 20 24 21 24 21 2z
m-253 -65 c4 -7 -108 2 -117 10 -3 2 22 3 54 1 32 -2 60 -6 63 -11z m-87 -17
c0 -5 -8 -10 -17 -10 -15 0 -16 2 -3 10 19 12 20 12 20 0z"/>
<path d="M6198 11963 c34 -2 90 -2 125 0 34 2 6 3 -63 3 -69 0 -97 -1 -62 -3z"/>
<path d="M6728 11963 c7 -3 16 -2 19 1 4 3 -2 6 -13 5 -11 0 -14 -3 -6 -6z"/>
<path d="M5980 11920 c0 -18 7 -20 75 -20 68 0 75 2 75 20 0 18 -7 20 -75 20
-68 0 -75 -2 -75 -20z"/>
<path d="M5623 11773 c9 -2 23 -2 30 0 6 3 -1 5 -18 5 -16 0 -22 -2 -12 -5z"/>
<path d="M5930 11710 c0 -5 -7 -10 -15 -10 -8 0 -15 -4 -15 -10 0 -5 6 -10 14
-10 8 0 18 5 21 10 3 6 15 10 26 10 10 0 19 5 19 10 0 6 -11 10 -25 10 -14 0
-25 -4 -25 -10z"/>
<path d="M3571 8304 c0 -11 3 -14 6 -6 3 7 2 16 -1 19 -3 4 -6 -2 -5 -13z"/>
<path d="M3212 7400 c0 -14 2 -19 5 -12 2 6 2 18 0 25 -3 6 -5 1 -5 -13z"/>
<path d="M3211 7314 c0 -11 3 -14 6 -6 3 7 2 16 -1 19 -3 4 -6 -2 -5 -13z"/>
<path d="M9353 7220 c0 -47 2 -66 4 -42 2 23 2 61 0 85 -2 23 -4 4 -4 -43z"/>
<path d="M9261 6774 c0 -11 3 -14 6 -6 3 7 2 16 -1 19 -3 4 -6 -2 -5 -13z"/>
<path d="M8460 6350 c0 -6 7 -10 15 -10 8 0 15 2 15 4 0 2 -7 6 -15 10 -8 3
-15 1 -15 -4z"/>
<path d="M8360 6246 c0 -8 5 -18 10 -21 6 -3 10 3 10 14 0 12 -4 21 -10 21 -5
0 -10 -6 -10 -14z"/>
<path d="M8300 6190 c0 -5 9 -10 21 -10 11 0 17 5 14 10 -3 6 -13 10 -21 10
-8 0 -14 -4 -14 -10z"/>
<path d="M8035 6110 c-3 -5 1 -10 9 -10 9 0 16 5 16 10 0 6 -4 10 -9 10 -6 0
-13 -4 -16 -10z"/>
<path d="M8105 6110 c-3 -5 3 -10 14 -10 12 0 21 5 21 10 0 6 -6 10 -14 10 -8
0 -18 -4 -21 -10z"/>
<path d="M7960 6086 c0 -8 5 -18 10 -21 6 -3 10 3 10 14 0 12 -4 21 -10 21 -5
0 -10 -6 -10 -14z"/>
<path d="M7900 6030 c0 -5 9 -10 21 -10 11 0 17 5 14 10 -3 6 -13 10 -21 10
-8 0 -14 -4 -14 -10z"/>
<path d="M3965 6010 c-3 -5 -1 -10 4 -10 6 0 11 5 11 10 0 6 -2 10 -4 10 -3 0
-8 -4 -11 -10z"/>
<path d="M4700 5999 c0 -11 5 -17 10 -14 6 3 10 13 10 21 0 8 -4 14 -10 14 -5
0 -10 -9 -10 -21z"/>
<path d="M4745 5950 c-4 -6 5 -10 20 -10 15 0 24 4 20 10 -3 6 -12 10 -20 10
-8 0 -17 -4 -20 -10z"/>
<path d="M8864 5905 c7 -25 -3 -41 -29 -48 -18 -4 -18 -5 2 -6 29 -1 48 32 33
57 -10 15 -10 15 -6 -3z"/>
<path d="M5490 5868 c0 -5 39 -7 88 -7 91 2 81 6 -26 11 -34 2 -62 0 -62 -4z"/>
<path d="M4140 5850 c0 -5 5 -10 10 -10 6 0 10 5 10 10 0 6 -4 10 -10 10 -5 0
-10 -4 -10 -10z"/>
<path d="M6291 5813 l-1 -53 85 0 85 0 -1 53 c-1 28 -4 42 -6 30 -4 -21 -10
-23 -78 -23 -68 0 -74 2 -78 23 -2 12 -5 -2 -6 -30z"/>
<path d="M8530 5650 c0 -44 2 -49 14 -37 8 7 16 25 18 38 2 20 10 25 41 27 56
5 45 18 -18 21 l-55 2 0 -51z"/>
<path d="M4308 5613 c7 -3 16 -2 19 1 4 3 -2 6 -13 5 -11 0 -14 -3 -6 -6z"/>
<path d="M4323 5603 c-13 -2 -23 -9 -23 -14 0 -13 27 -11 36 2 3 6 15 9 25 6
11 -3 19 -1 19 4 0 9 -17 10 -57 2z"/>
<path d="M4468 5533 c6 -2 18 -2 25 0 6 3 1 5 -13 5 -14 0 -19 -2 -12 -5z"/>
<path d="M4852 5520 c0 -14 2 -19 5 -12 2 6 2 18 0 25 -3 6 -5 1 -5 -13z"/>
<path d="M8380 5520 c0 -5 7 -10 15 -10 8 0 15 5 15 10 0 6 -7 10 -15 10 -8 0
-15 -4 -15 -10z"/>
<path d="M4788 5443 c7 -3 16 -2 19 1 4 3 -2 6 -13 5 -11 0 -14 -3 -6 -6z"/>
<path d="M7572 5363 c-2 -22 -6 -23 -82 -23 -80 0 -80 0 -80 -26 0 -26 -2 -26
-45 -22 -25 3 -45 4 -45 2 0 -1 26 -10 57 -19 54 -16 67 -16 210 0 84 10 153
20 153 23 0 2 -30 2 -67 -2 -38 -3 -73 -3 -80 2 -6 4 -13 25 -16 47 -2 22 -4
30 -5 18z m2 -58 c3 -10 -1 -15 -13 -15 -10 0 -45 -2 -77 -4 -47 -3 -51 -2
-19 4 l40 7 -42 1 c-75 3 -47 22 31 22 56 0 75 -4 80 -15z"/>
<path d="M7732 5350 c0 -19 2 -27 5 -17 2 9 2 25 0 35 -3 9 -5 1 -5 -18z"/>
<path d="M7782 5368 c7 -19 38 -22 38 -4 0 10 -9 16 -21 16 -12 0 -19 -5 -17
-12z"/>
<path d="M7890 5363 c0 -8 21 -11 65 -11 36 1 65 5 65 9 0 4 10 9 23 11 12 2
-17 3 -65 3 -61 0 -88 -4 -88 -12z"/>
<path d="M5780 5291 c-33 -4 -40 -8 -27 -13 26 -11 67 -10 67 1 0 6 19 12 43
14 l42 4 -40 0 c-22 0 -60 -3 -85 -6z"/>
<path d="M7260 5265 c0 -8 7 -15 15 -15 8 0 15 7 15 15 0 8 -7 15 -15 15 -8 0
-15 -7 -15 -15z"/>
<path d="M6798 5213 c12 -2 32 -2 45 0 12 2 2 4 -23 4 -25 0 -35 -2 -22 -4z"/>
<path d="M7055 4513 c-65 -27 -118 -90 -153 -179 -17 -43 -48 -115 -70 -159
-22 -44 -42 -92 -46 -107 -6 -25 -11 -28 -46 -28 -22 0 -40 4 -40 10 0 15 -68
79 -108 100 -53 29 -122 27 -156 -5 -14 -13 -45 -29 -69 -35 -97 -24 -119 -32
-139 -52 -19 -19 -35 -20 -327 -25 l-306 -6 -65 36 c-36 20 -94 47 -130 60
-36 13 -85 34 -110 45 -25 11 -56 23 -70 26 -39 9 -109 -12 -149 -44 -52 -42
-154 -60 -345 -60 -281 0 -432 31 -613 127 -35 18 -80 36 -102 39 -40 6 -111
-11 -111 -27 0 -14 -32 -42 -70 -61 -19 -10 -66 -36 -105 -59 -121 -70 -150
-80 -223 -80 -62 0 -149 15 -247 42 -93 25 -139 24 -169 -7 -64 -63 65 -171
248 -208 136 -28 235 -31 302 -11 63 19 242 104 312 149 40 25 87 34 94 18 4
-11 106 -59 143 -68 17 -4 32 -11 35 -15 14 -20 328 -52 520 -52 173 -1 205 2
285 22 50 13 106 32 126 42 35 17 37 17 68 -2 17 -10 37 -19 44 -19 7 0 21 -6
31 -13 16 -12 14 -16 -26 -58 -24 -24 -59 -64 -78 -89 -19 -24 -48 -58 -65
-76 -16 -17 -57 -62 -90 -100 -33 -37 -79 -87 -102 -111 l-42 -43 -380 0 -379
0 -30 -25 c-46 -38 -48 -69 -12 -177 36 -106 115 -245 172 -300 21 -21 38 -42
38 -48 0 -5 3 -10 8 -10 4 0 16 -13 27 -29 11 -17 27 -32 37 -34 10 -3 18 -9
18 -14 0 -10 -70 -33 -100 -33 -36 0 -141 -40 -165 -63 -35 -33 -65 -89 -65
-120 0 -50 26 -83 91 -116 94 -47 191 -41 363 24 l97 36 71 -42 c153 -93 319
-137 468 -126 117 9 241 49 313 99 l28 20 41 -27 c56 -37 200 -71 403 -94 285
-33 432 -8 557 92 35 28 39 29 55 15 29 -25 119 -68 186 -87 127 -38 178 -43
387 -39 201 4 207 5 295 37 50 17 98 36 107 41 22 12 58 13 58 2 0 -5 42 -30
93 -56 182 -92 503 -124 623 -61 16 8 34 15 40 15 5 0 19 8 30 18 10 9 37 29
59 43 39 25 41 25 70 9 78 -42 213 -82 326 -95 53 -7 181 7 244 25 189 56 205
64 219 108 4 12 5 36 1 52 -6 25 -18 35 -78 64 -127 59 -145 66 -165 66 -11 0
-22 4 -24 10 -3 9 -31 17 -252 69 -49 11 -92 23 -95 26 -3 3 0 15 7 25 17 28
15 46 -18 156 -17 55 -34 113 -39 129 -5 17 -23 75 -40 130 -17 55 -35 121
-40 146 -27 123 -39 129 -248 132 l-156 2 -13 40 c-7 22 -24 85 -38 140 -41
153 -44 164 -71 250 -14 44 -25 85 -25 92 0 9 20 13 70 13 80 0 188 36 293 97
l58 35 37 -25 c46 -32 116 -59 210 -82 122 -29 325 -18 525 29 l158 38 108
-21 c184 -37 293 -50 498 -61 226 -13 240 -12 423 34 211 53 273 76 288 108
15 31 3 72 -27 87 -12 7 -192 15 -463 21 -358 8 -467 13 -568 29 -181 29 -240
28 -314 -9 -136 -66 -433 -99 -601 -67 -85 17 -127 37 -180 89 -52 52 -83 67
-123 61 -35 -6 -64 -39 -75 -84 -11 -45 -157 -105 -314 -128 -39 -6 -75 -11
-79 -11 -4 0 -4 61 -1 136 7 161 0 189 -63 230 -41 27 -43 27 -278 35 -130 5
-282 13 -337 19 -125 13 -131 13 -180 -7z m-309 -703 c1003 0 1062 -1 1067
-17 39 -135 97 -352 97 -361 0 -4 -615 -6 -1367 -4 -753 2 -1360 7 -1350 11
10 4 17 9 15 11 -6 9 57 90 70 90 6 0 12 3 12 8 0 9 47 64 205 240 l30 33 80
-6 c44 -2 558 -5 1141 -5z m-1349 -602 c11 -9 16 -9 23 1 6 11 96 12 481 6
261 -5 506 -9 544 -11 39 -2 162 -2 275 -2 356 2 710 2 845 0 72 -1 276 2 454
6 370 8 332 18 345 -90 4 -32 12 -58 17 -58 5 0 9 -9 9 -20 0 -11 7 -37 16
-58 16 -36 53 -167 54 -187 0 -6 -25 -16 -56 -23 -60 -14 -115 -55 -137 -101
-14 -29 -22 -30 -177 -20 -47 3 -73 4 -57 2 15 -3 27 -8 27 -13 0 -5 24 -11
53 -13 28 -2 -4 -3 -73 -2 -128 2 -174 10 -148 26 7 5 -3 6 -24 3 -42 -7 -100
20 -161 76 -22 19 -42 35 -45 36 -4 0 -20 6 -37 13 -32 14 -50 16 -106 13 -38
-2 -108 -49 -102 -68 2 -6 -13 -19 -34 -30 -21 -10 -40 -22 -43 -26 -10 -12
-162 -28 -273 -28 -112 0 -232 14 -252 29 -5 5 -22 11 -37 15 -15 3 -51 30
-80 60 -56 56 -97 76 -157 76 -44 0 -121 -22 -124 -36 -1 -5 -10 -9 -19 -8 -9
0 -15 -3 -12 -7 6 -11 -44 -56 -83 -74 -17 -8 -33 -21 -36 -28 -5 -16 -192
-20 -267 -5 -30 6 -70 11 -88 11 -18 0 -28 4 -21 7 6 4 -13 7 -43 7 -85 0
-174 36 -228 93 -25 26 -62 54 -82 61 -20 7 -34 17 -31 22 3 5 -4 4 -15 -2
-11 -6 -34 -11 -51 -11 -27 0 -114 -55 -133 -84 -25 -38 -37 -47 -85 -62 -40
-13 -70 -15 -128 -9 -41 4 -75 11 -75 15 0 5 -19 15 -42 22 -41 12 -129 64
-136 81 -2 4 -8 7 -14 7 -5 0 -16 7 -25 15 -8 8 -19 13 -24 10 -5 -3 -18 -1
-30 6 -17 9 -19 13 -8 20 10 7 5 8 -12 3 -15 -3 -30 -1 -33 5 -4 6 -21 11 -38
11 -28 0 -60 20 -119 75 -9 8 -18 15 -22 15 -15 0 -111 112 -165 192 l-32 47
531 0 c395 1 536 -2 546 -11z m2820 -594 c-3 -3 -12 -4 -19 -1 -8 3 -5 6 6 6
11 1 17 -2 13 -5z"/>
<path d="M6620 3170 c0 -6 33 -9 83 -9 77 2 79 2 32 9 -72 12 -115 11 -115 0z"/>
<path d="M7678 3163 c12 -2 32 -2 45 0 12 2 2 4 -23 4 -25 0 -35 -2 -22 -4z"/>
<path d="M7918 3153 c56 -2 148 -2 205 0 56 1 10 3 -103 3 -113 0 -159 -2
-102 -3z"/>
<path d="M8253 3153 c15 -2 37 -2 50 0 12 2 0 4 -28 4 -27 0 -38 -2 -22 -4z"/>
<path d="M8391 2914 c0 -11 3 -14 6 -6 3 7 2 16 -1 19 -3 4 -6 -2 -5 -13z"/>
<path d="M5405 2870 c3 -5 8 -10 11 -10 2 0 4 5 4 10 0 6 -5 10 -11 10 -5 0
-7 -4 -4 -10z"/>
<path d="M8260 2830 l-45 -7 40 -2 c22 -1 51 -8 65 -16 32 -19 44 -19 36 0 -3
8 -1 15 4 15 6 0 10 5 10 10 0 11 -40 11 -110 0z"/>
<path d="M8140 2810 c0 -5 16 -10 35 -10 19 0 35 5 35 10 0 6 -16 10 -35 10
-19 0 -35 -4 -35 -10z"/>
<path d="M8016 2793 c-16 -3 -35 -11 -42 -18 -14 -14 -16 -13 119 -31 39 -5
47 -3 47 10 0 12 -10 16 -40 16 -29 0 -40 4 -40 15 0 8 -3 14 -7 14 -5 -1 -21
-4 -37 -6z"/>
<path d="M8300 2765 c0 -9 6 -12 15 -9 8 4 12 10 9 15 -8 14 -24 10 -24 -6z"/>
<path d="M7859 2742 c-21 -2 -45 -12 -54 -23 -18 -19 -17 -19 33 -19 42 0 52
3 57 21 8 25 9 25 -36 21z"/>
<path d="M5188 2733 c7 -3 16 -2 19 1 4 3 -2 6 -13 5 -11 0 -14 -3 -6 -6z"/>
<path d="M8220 2694 c0 -14 4 -23 10 -19 6 3 10 15 10 26 0 10 -4 19 -10 19
-5 0 -10 -12 -10 -26z"/>
<path d="M7805 2680 c3 -5 8 -10 11 -10 2 0 4 5 4 10 0 6 -5 10 -11 10 -5 0
-7 -4 -4 -10z"/>
<path d="M7943 2653 c9 -2 23 -2 30 0 6 3 -1 5 -18 5 -16 0 -22 -2 -12 -5z"/>
</g>
</svg>
